<?xml version="1.0" standalone="no"?>
<!DOCTYPE svg PUBLIC "-//W3C//DTD SVG 20010904//EN" "http://www.w3.org/TR/2001/REC-SVG-20010904/DTD/svg10.dtd">
<!-- Created using Krita: https://krita.org -->
<svg xmlns="http://www.w3.org/2000/svg" 
    xmlns:xlink="http://www.w3.org/1999/xlink"
    xmlns:krita="http://krita.org/namespaces/svg/krita"
    xmlns:sodipodi="http://sodipodi.sourceforge.net/DTD/sodipodi-0.dtd"
    width="155pt"
    height="155pt"
    viewBox="0 0 155 155">
<defs/>
<circle id="shape03" transform="matrix(0.6 0 0 0.6 1.5 61.5)" r="25" cx="25" cy="25" fill="#007afc" stroke="#007afc" stroke-width="5" stroke-linecap="square" stroke-linejoin="bevel"/><circle id="shape05" transform="matrix(0.6 0 0 0.6 121.5 61.5)" r="25" cx="25" cy="25" fill="#007afc" stroke="#007afc" stroke-width="5" stroke-linecap="square" stroke-linejoin="bevel"/><circle id="shape0" transform="matrix(0.6 0 0 0.6 1.5 1.5)" r="25" cx="25" cy="25" fill="#ffffff" stroke="#ffffff" stroke-width="5" stroke-linecap="square" stroke-linejoin="bevel"/><circle id="shape01" transform="matrix(0.6 0 0 0.6 61.5 1.5)" r="25" cx="25" cy="25" fill="#ffffff" stroke="#ffffff" stroke-width="5" stroke-linecap="square" stroke-linejoin="bevel"/><circle id="shape02" transform="matrix(0.6 0 0 0.6 121.5 1.5)" r="25" cx="25" cy="25" fill="#ffffff" stroke="#ffffff" stroke-width="5" stroke-linecap="square" stroke-linejoin="bevel"/><circle id="shape04" transform="matrix(0.6 0 0 0.6 61.5 61.5)" r="25" cx="25" cy="25" fill="#ffffff" stroke="#ffffff" stroke-width="5" stroke-linecap="square" stroke-linejoin="bevel"/><circle id="shape041" transform="matrix(0.6 0 0 0.6 61.5 121.8)" r="25" cx="25" cy="25" fill="#ffffff" stroke="#ffffff" stroke-width="5" stroke-linecap="square" stroke-linejoin="bevel"/>
</svg>
